# xmcd
#
# Track frame offsets:
#	150
#	24381
#	41212
#	54391
#	74925
#	94109
#	106465
#	127633
#	138865
#	158258
#	180281
#	193797
#	210886
#	227970
#	246762
#	268185
#	281958
#	300838
#	319732
#
# Disc length: 4493 seconds
#
# Revision: 1
# Processed by: cddbd v1.5.1PL2 Copyright (c) Steve Scherf et al.
# Submitted via: audiograbber 1.83.01
#
DISCID=04118b13
DTITLE=Keith Urban and The Ranch - Keith Urban and The Ranch Mix
DYEAR=2006
DGENRE=Country
TTITLE0=Keith Urban - Somebody Like You
TTITLE1=Keith Urban - Days Go By
TTITLE2=The Ranch - Walkin' The Country
TTITLE3=Keith Urban - But For The Grace Of God
TTITLE4=Keith Urban - Who Wouldn't Wanna Be Me
TTITLE5=The Ranch - Homespun Love
TTITLE6=Keith Urban - Better Life
TTITLE7=The Ranch - Some Days You Gotta Dance
TTITLE8=Keith Urban - Tonight I Wanna Cry
TTITLE9=Keith Urban - You'll Think Of Me
TTITLE10=Keith Urban - Where The Blacktop Ends
TTITLE11=The Ranch - Freedom's Finally Mine
TTITLE12=Keith Urban - You Look Good In My Shirt
TTITLE13=Keith Urban - Making Memories Of Us
TTITLE14=Keith Urban - Raining On Sunday
TTITLE15=The Ranch - Hank Don't Fail Me Now
TTITLE16=Keith Urban - You're My Better Half
TTITLE17=Keith Urban - Your Everything
TTITLE18=The Ranch - Stuck In The Middle
EXTD=
EXTT0=
EXTT1=
EXTT2=
EXTT3=
EXTT4=
EXTT5=
EXTT6=
EXTT7=
EXTT8=
EXTT9=
EXTT10=
EXTT11=
EXTT12=
EXTT13=
EXTT14=
EXTT15=
EXTT16=
EXTT17=
EXTT18=
PLAYORDER=
